<?xml version="1.0" standalone="no"?>
<svg xmlns:xlink="http://www.w3.org/1999/xlink" id="wave" style="transform:rotate(0deg); transition: 0.3s" viewBox="0 0 1440 490" version="1.1" xmlns="http://www.w3.org/2000/svg"><defs><linearGradient id="sw-gradient-0" x1="0" x2="0" y1="1" y2="0"><stop stop-color="rgba(24, 118, 210, 1)" offset="0%"/><stop stop-color="rgba(168, 218, 220, 1)" offset="100%"/></linearGradient></defs><path style="transform:translate(0, 0px); opacity:1" fill="url(#sw-gradient-0)" d="M0,147L40,155.2C80,163,160,180,240,163.3C320,147,400,98,480,65.3C560,33,640,16,720,40.8C800,65,880,131,960,147C1040,163,1120,131,1200,130.7C1280,131,1360,163,1440,204.2C1520,245,1600,294,1680,318.5C1760,343,1840,343,1920,294C2000,245,2080,147,2160,122.5C2240,98,2320,147,2400,212.3C2480,278,2560,359,2640,400.2C2720,441,2800,441,2880,400.2C2960,359,3040,278,3120,220.5C3200,163,3280,131,3360,171.5C3440,212,3520,327,3600,367.5C3680,408,3760,376,3840,351.2C3920,327,4000,310,4080,253.2C4160,196,4240,98,4320,81.7C4400,65,4480,131,4560,171.5C4640,212,4720,229,4800,261.3C4880,294,4960,343,5040,318.5C5120,294,5200,196,5280,130.7C5360,65,5440,33,5520,81.7C5600,131,5680,261,5720,326.7L5760,392L5760,490L5720,490C5680,490,5600,490,5520,490C5440,490,5360,490,5280,490C5200,490,5120,490,5040,490C4960,490,4880,490,4800,490C4720,490,4640,490,4560,490C4480,490,4400,490,4320,490C4240,490,4160,490,4080,490C4000,490,3920,490,3840,490C3760,490,3680,490,3600,490C3520,490,3440,490,3360,490C3280,490,3200,490,3120,490C3040,490,2960,490,2880,490C2800,490,2720,490,2640,490C2560,490,2480,490,2400,490C2320,490,2240,490,2160,490C2080,490,2000,490,1920,490C1840,490,1760,490,1680,490C1600,490,1520,490,1440,490C1360,490,1280,490,1200,490C1120,490,1040,490,960,490C880,490,800,490,720,490C640,490,560,490,480,490C400,490,320,490,240,490C160,490,80,490,40,490L0,490Z"/></svg>